<?xml version="1.0" standalone="no"?>
<!DOCTYPE svg PUBLIC "-//W3C//DTD SVG 20010904//EN"
 "http://www.w3.org/TR/2001/REC-SVG-20010904/DTD/svg10.dtd">
<svg version="1.0" xmlns="http://www.w3.org/2000/svg"
 width="512.000000pt" height="512.000000pt" viewBox="0 0 512.000000 512.000000"
 preserveAspectRatio="xMidYMid meet">
<metadata>
Created by potrace 1.11, written by Peter Selinger 2001-2013
</metadata>
<g transform="translate(0.000000,512.000000) scale(0.100000,-0.100000)"
fill="#000000" stroke="none">
<path d="M0 2560 l0 -2560 2560 0 2560 0 0 2560 0 2560 -2560 0 -2560 0 0
-2560z m3187 1717 c421 -67 706 -228 889 -503 101 -152 149 -316 160 -544 17
-358 -96 -669 -329 -904 -78 -79 -80 -83 -45 -70 20 7 90 25 155 40 100 23
141 28 273 28 95 0 178 -4 215 -13 316 -70 482 -284 462 -596 -10 -149 -56
-269 -158 -415 -94 -134 -376 -409 -717 -700 l-123 -105 545 -3 546 -2 0 -120
0 -120 -690 0 -690 0 1 148 0 147 202 170 c235 199 566 524 657 645 77 103
125 203 141 294 38 219 -55 374 -251 420 -166 40 -392 -1 -599 -106 -52 -26
-96 -48 -98 -48 -1 0 -3 56 -3 125 0 69 -3 125 -6 125 -3 0 -18 -8 -32 -19
-49 -35 -193 -103 -280 -132 -201 -68 -398 -89 -834 -89 l-318 0 0 -705 0
-705 -250 0 -250 0 0 1891 0 1891 663 -5 c547 -3 680 -7 764 -20z m-2042
-2301 c90 -24 198 -81 259 -137 147 -135 216 -331 216 -621 l0 -118 -600 0
-600 0 0 -40 c0 -67 30 -191 61 -258 140 -294 533 -376 926 -192 45 21 102 52
127 69 24 17 47 31 50 31 3 0 6 -68 6 -150 l0 -151 -44 -19 c-62 -26 -226 -78
-310 -97 -112 -26 -385 -23 -499 5 -97 24 -211 73 -279 120 -60 41 -145 131
-190 199 -123 187 -162 522 -93 797 39 151 101 261 210 371 110 111 236 175
403 205 69 13 288 4 357 -14z"/>
<path d="M2260 3114 l0 -756 348 5 c365 5 454 14 598 58 146 45 262 122 350
232 68 86 107 161 136 264 30 104 32 343 4 443 -83 300 -308 460 -705 500 -57
5 -244 10 -417 10 l-314 0 0 -756z"/>
<path d="M783 1766 c-35 -8 -85 -27 -113 -42 -67 -36 -151 -126 -189 -202 -27
-54 -60 -163 -61 -199 0 -10 99 -13 461 -13 l462 0 -7 72 c-20 194 -99 313
-247 369 -71 27 -220 34 -306 15z"/>
</g>
</svg>
